# xmcd CD database file
#
# Track frame offsets:
#	150
#	21478
#	45926
#	72700
#	81730
#	99633
#	119966
#	124769
#	142783
#
# Disc length: 2306 seconds
#
# Revision: 0
# Processed by: cddbd v1.5.2PL0 Copyright (c) Steve Scherf et al.
# Submitted via: CDex 1.51
#
DISCID=88090009
DTITLE=Goohde, Håkan Trio - hokus fokus
DYEAR=2004
DGENRE=Jazz
TTITLE0=the believers
TTITLE1=distance
TTITLE2=obdurodon
TTITLE3=dubbelt så lång
TTITLE4=hatam
TTITLE5=commercial
TTITLE6=k.l.i.m.p
TTITLE7=context
TTITLE8=am i
EXTD=YEAR: 2004
EXTT0=
EXTT1=
EXTT2=
EXTT3=
EXTT4=
EXTT5=
EXTT6=
EXTT7=
EXTT8=
PLAYORDER=
